<svg xmlns="http://www.w3.org/2000/svg" width="1600" height="900" viewBox="0 0 1600 900">
<style>
.group{font:700 16px 'Noto Sans SC','Microsoft YaHei',sans-serif;fill:#222}
.text{font:14px 'Noto Sans SC','Microsoft YaHei',sans-serif;fill:#222}
.small{font:13px 'Noto Sans SC','Microsoft YaHei',sans-serif;fill:#666}
</style>
<defs><marker id="arr" viewBox="0 0 10 10" refX="9" refY="5" markerWidth="8" markerHeight="8" orient="auto"><path d="M 0 0 L 10 5 L 0 10 z" fill="#444"/></marker></defs>
<rect x="60" y="320" width="220" height="100" rx="18" fill="#f5f5f5" stroke="#666" stroke-width="2"/>
<text x="170" y="365" text-anchor="middle" class="group">原始金融数据输入</text><text x="170" y="392" text-anchor="middle" class="text">交易记录 / 账户行为 / 上下文特征</text>
<rect x="340" y="320" width="230" height="100" rx="18" fill="#fff2cc" stroke="#d6b656" stroke-width="2"/>
<text x="455" y="360" text-anchor="middle" class="group">数据接入与预处理</text><text x="455" y="387" text-anchor="middle" class="text">规范化 / 编码 / 时间窗统计 / 清洗</text>
<rect x="630" y="320" width="230" height="100" rx="18" fill="#dae8fc" stroke="#6c8ebf" stroke-width="2"/>
<text x="745" y="360" text-anchor="middle" class="group">统一向量表示构造</text><text x="745" y="387" text-anchor="middle" class="text">维度检查 / 类型检查 / 向量化表示</text>
<rect x="920" y="320" width="230" height="100" rx="18" fill="#d5e8d4" stroke="#82b366" stroke-width="2"/>
<text x="1035" y="360" text-anchor="middle" class="group">高吞吐候选召回</text><text x="1035" y="387" text-anchor="middle" class="text">ANN 检索 / 索引访问 / 候选集合返回</text>
<rect x="1210" y="320" width="250" height="100" rx="18" fill="#e1d5e7" stroke="#9673a6" stroke-width="2"/>
<text x="1335" y="360" text-anchor="middle" class="group">候选结果组织与重排</text><text x="1335" y="387" text-anchor="middle" class="text">设备侧表达 / 中间结果整理 / 评分输入构造</text>
<rect x="1210" y="520" width="250" height="100" rx="18" fill="#f8cecc" stroke="#b85450" stroke-width="2"/>
<text x="1335" y="560" text-anchor="middle" class="group">张量化异常评分</text><text x="1335" y="587" text-anchor="middle" class="text">距离计算 / 排序筛选 / 聚合统计 / 异常分数</text>
<rect x="920" y="520" width="230" height="100" rx="18" fill="#f5f5f5" stroke="#666" stroke-width="2"/>
<text x="1035" y="560" text-anchor="middle" class="group">结果输出与追踪</text><text x="1035" y="587" text-anchor="middle" class="text">风险排序 / 异常告警 / 日志记录 / 统计指标</text>
<rect x="630" y="520" width="230" height="100" rx="18" fill="#ffffff" stroke="#666" stroke-width="2"/>
<text x="745" y="560" text-anchor="middle" class="group">人工复核与反馈闭环</text><text x="745" y="587" text-anchor="middle" class="text">告警确认 / 规则调整 / 采样复查</text>
<rect x="920" y="690" width="350" height="60" rx="16" fill="#fff" stroke="#999" stroke-dasharray="6 6" stroke-width="2"/>
<text x="1095" y="727" text-anchor="middle" class="group">在线筛查 / 风险排序 / 审计追踪</text>
<text x="315" y="290" text-anchor="middle" class="small">连续到达、时延敏感、峰值流量显著</text>
<line x1="280" y1="370" x2="340" y2="370" stroke="#444" stroke-width="2" marker-end="url(#arr)"/>
<line x1="570" y1="370" x2="630" y2="370" stroke="#444" stroke-width="2" marker-end="url(#arr)"/>
<line x1="860" y1="370" x2="920" y2="370" stroke="#444" stroke-width="2" marker-end="url(#arr)"/>
<line x1="1150" y1="370" x2="1210" y2="370" stroke="#444" stroke-width="2" marker-end="url(#arr)"/>
<line x1="1335" y1="420" x2="1335" y2="520" stroke="#444" stroke-width="2" marker-end="url(#arr)"/>
<line x1="1210" y1="570" x2="1150" y2="570" stroke="#444" stroke-width="2" marker-end="url(#arr)"/>
<line x1="920" y1="570" x2="860" y2="570" stroke="#444" stroke-width="2" marker-end="url(#arr)"/>
<line x1="1035" y1="620" x2="1095" y2="690" stroke="#444" stroke-width="2" marker-end="url(#arr)"/>
<path d="M 630 570 L 520 570 L 520 470 L 455 470 L 455 420" fill="none" stroke="#666" stroke-width="2" stroke-dasharray="6 6" marker-end="url(#arr)"/>
<text x="890" y="558" class="small">告警与日志</text>
<text x="1060" y="665" class="small">输出服务</text>
<text x="555" y="545" class="small">反馈闭环</text>
</svg>