<svg xmlns="http://www.w3.org/2000/svg" width="1560" height="860" viewBox="0 0 1560 860">
<style>
  .title{font:700 16px 'Noto Sans SC', 'Microsoft YaHei', sans-serif;fill:#222}
  .text{font:14px 'Noto Sans SC', 'Microsoft YaHei', sans-serif;fill:#222}
  .small{font:13px 'Noto Sans SC', 'Microsoft YaHei', sans-serif;fill:#444}
  .group{font:700 16px 'Noto Sans SC', 'Microsoft YaHei', sans-serif;fill:#222}
</style>
<rect x="20" y="20" width="1520" height="820" rx="20" ry="20" fill="#ffffff" stroke="#ffffff"/>
<g>
<rect x="60" y="290" width="220" height="240" rx="18" fill="#f5f5f5" stroke="#666" stroke-width="2"/>
<text x="170" y="322" text-anchor="middle" class="group">金融风控输入</text>
<rect x="95" y="335" width="150" height="40" rx="10" fill="#fff" stroke="#666"/><text x="170" y="360" text-anchor="middle" class="text">交易流水</text>
<rect x="95" y="390" width="150" height="40" rx="10" fill="#fff" stroke="#666"/><text x="170" y="415" text-anchor="middle" class="text">账户行为</text>
<rect x="95" y="445" width="150" height="40" rx="10" fill="#fff" stroke="#666"/><text x="170" y="470" text-anchor="middle" class="text">设备与关系特征</text>
</g>
<g>
<rect x="330" y="340" width="260" height="140" rx="18" fill="#fff2cc" stroke="#d6b656" stroke-width="2"/>
<text x="460" y="390" text-anchor="middle" class="group">数据预处理与特征构造</text>
<text x="460" y="420" text-anchor="middle" class="text">样本向量化 / 特征清洗 /</text>
<text x="460" y="445" text-anchor="middle" class="text">评分输入组织</text>
</g>
<g>
<rect x="650" y="90" width="320" height="90" rx="18" fill="#dae8fc" stroke="#6c8ebf" stroke-width="2"/>
<text x="810" y="128" text-anchor="middle" class="group">PyTOD–FlashANNS 融合调度层</text>
<text x="810" y="208" text-anchor="middle" class="text">候选召回与异常评分协同执行</text>
<text x="810" y="232" text-anchor="middle" class="text">有界候选集 + 张量化评分 + 结果聚合</text>
</g>
<g>
<rect x="650" y="250" width="400" height="250" rx="18" fill="#d5e8d4" stroke="#82b366" stroke-width="2"/>
<text x="850" y="282" text-anchor="middle" class="group">FlashANNS 候选召回子系统</text>
<rect x="685" y="300" width="150" height="42" rx="10" fill="#fff" stroke="#82b366"/><text x="760" y="326" text-anchor="middle" class="text">图索引 / 向量索引</text>
<rect x="865" y="300" width="150" height="42" rx="10" fill="#fff" stroke="#82b366"/><text x="940" y="326" text-anchor="middle" class="text">异步 I/O–计算流水</text>
<rect x="685" y="365" width="150" height="42" rx="10" fill="#fff" stroke="#82b366"/><text x="760" y="391" text-anchor="middle" class="text">Warp 级并发 SSD 访问</text>
<rect x="865" y="365" width="150" height="42" rx="10" fill="#fff" stroke="#82b366"/><text x="940" y="391" text-anchor="middle" class="text">图度 / 带宽自适应</text>
<rect x="760" y="435" width="145" height="42" rx="10" fill="#eaf4e8" stroke="#82b366"/><text x="833" y="461" text-anchor="middle" class="text">输出：有界候选集</text>
</g>
<g>
<rect x="650" y="560" width="400" height="250" rx="18" fill="#f8cecc" stroke="#b85450" stroke-width="2"/>
<text x="850" y="592" text-anchor="middle" class="group">PyTOD 异常评分子系统</text>
<rect x="685" y="610" width="150" height="42" rx="10" fill="#fff" stroke="#b85450"/><text x="760" y="636" text-anchor="middle" class="text">基础张量算子</text>
<rect x="865" y="610" width="150" height="42" rx="10" fill="#fff" stroke="#b85450"/><text x="940" y="636" text-anchor="middle" class="text">功能算子组合</text>
<rect x="685" y="675" width="150" height="42" rx="10" fill="#fff" stroke="#b85450"/><text x="760" y="701" text-anchor="middle" class="text">自动批处理 / 算子融合</text>
<rect x="865" y="675" width="150" height="42" rx="10" fill="#fff" stroke="#b85450"/><text x="940" y="701" text-anchor="middle" class="text">张量化异常评分</text>
<rect x="735" y="745" width="195" height="42" rx="10" fill="#fdecea" stroke="#b85450"/><text x="833" y="771" text-anchor="middle" class="text">输出：候选样本异常分数</text>
</g>
<g>
<rect x="330" y="730" width="260" height="70" rx="16" fill="#eee" stroke="#999" stroke-width="2"/>
<text x="460" y="760" text-anchor="middle" class="group">GPU 执行与工程支撑层</text>
<text x="460" y="785" text-anchor="middle" class="text">PyTorch / CUDA / RAPIDS / FAISS-GPU / NCCL</text>
</g>
<g>
<rect x="1130" y="320" width="260" height="220" rx="18" fill="#f5f5f5" stroke="#666" stroke-width="2"/>
<text x="1260" y="352" text-anchor="middle" class="group">系统输出</text>
<rect x="1185" y="370" width="150" height="40" rx="10" fill="#fff" stroke="#666"/><text x="1260" y="395" text-anchor="middle" class="text">风险排序结果</text>
<rect x="1185" y="425" width="150" height="40" rx="10" fill="#fff" stroke="#666"/><text x="1260" y="450" text-anchor="middle" class="text">异常告警</text>
<rect x="1185" y="480" width="150" height="40" rx="10" fill="#fff" stroke="#666"/><text x="1260" y="505" text-anchor="middle" class="text">人工复核 / 反馈</text>
</g>
<defs>
<marker id="arrow" viewBox="0 0 10 10" refX="9" refY="5" markerWidth="8" markerHeight="8" orient="auto-start-reverse"><path d="M 0 0 L 10 5 L 0 10 z" fill="#444"/></marker>
<marker id="arrowGray" viewBox="0 0 10 10" refX="9" refY="5" markerWidth="8" markerHeight="8" orient="auto-start-reverse"><path d="M 0 0 L 10 5 L 0 10 z" fill="#999"/></marker>
</defs>
<line x1="280" y1="410" x2="330" y2="410" stroke="#444" stroke-width="2" marker-end="url(#arrow)"/>
<line x1="590" y1="410" x2="650" y2="135" stroke="#444" stroke-width="2" marker-end="url(#arrow)"/>
<line x1="810" y1="180" x2="810" y2="250" stroke="#444" stroke-width="2" marker-end="url(#arrow)"/>
<line x1="833" y1="477" x2="833" y2="560" stroke="#444" stroke-width="2" marker-end="url(#arrow)"/>
<line x1="930" y1="766" x2="1130" y2="430" stroke="#444" stroke-width="2" marker-end="url(#arrow)"/>
<line x1="590" y1="765" x2="650" y2="685" stroke="#999" stroke-dasharray="6 6" stroke-width="2" marker-end="url(#arrowGray)"/>
<line x1="590" y1="765" x2="650" y2="390" stroke="#999" stroke-dasharray="6 6" stroke-width="2" marker-end="url(#arrowGray)"/>
<path d="M 1185 500 L 1090 500 L 1090 680 L 460 680 L 460 480" fill="none" stroke="#666" stroke-width="2" stroke-dasharray="6 6" marker-end="url(#arrow)"/>
<text x="820" y="240" text-anchor="middle" class="small">召回查询</text>
<text x="852" y="525" text-anchor="middle" class="small">候选集</text>
<text x="1030" y="620" text-anchor="middle" class="small">评分结果</text>
<text x="630" y="742" text-anchor="middle" class="small">GPU 张量执行</text>
<text x="618" y="555" text-anchor="middle" class="small">GPU 检索执行</text>
<text x="900" y="665" text-anchor="middle" class="small">反馈闭环</text>
</svg>